<svg width="758" height="624" viewBox="0 0 758 624" fill="none" xmlns="http://www.w3.org/2000/svg">
<g clip-path="url(#clip0_198_1614)">
<mask id="mask0_198_1614" style="mask-type:luminance" maskUnits="userSpaceOnUse" x="0" y="0" width="758" height="624">
<path d="M0 0H758V624H0V0Z" fill="white"/>
</mask>
<g mask="url(#mask0_198_1614)">
<path fill-rule="evenodd" clip-rule="evenodd" d="M26.307 515.6C101.251 645.439 319.939 659.513 514.736 547.118C709.533 434.723 806.684 238.28 731.64 108.441C656.794 -21.3987 438.106 -35.5717 243.309 76.9223C48.512 189.317 -48.638 385.761 26.307 515.6ZM443.46 34.1053L619.223 293.783H490.647V330.654H677.414V330.753H677.513C678.191 330.748 678.864 330.879 679.491 331.136C680.119 331.393 680.689 331.773 681.168 332.252C681.648 332.732 682.028 333.302 682.285 333.929C682.542 334.557 682.673 335.229 682.668 335.907C682.673 337.033 682.306 338.128 681.625 339.024C680.944 339.92 679.987 340.566 678.901 340.862L678.802 340.961C678.802 340.961 588.987 365.542 490.548 427.091V427.587L490.151 427.389C428.292 466.043 363.162 519.267 314.487 590.332L138.823 330.654H285.54C291.389 318.859 298.13 306.47 305.962 293.783H80.731V293.684H80.631C79.9529 293.689 79.2807 293.559 78.6533 293.301C78.026 293.044 77.456 292.664 76.9765 292.185C76.497 291.705 76.1175 291.135 75.8601 290.508C75.6027 289.881 75.4725 289.208 75.477 288.53C75.4723 287.405 75.8388 286.31 76.5199 285.414C77.2009 284.518 78.1584 283.872 79.244 283.575L79.343 283.475C79.145 283.475 317.263 218.457 443.46 34.1053Z" fill="#0B318F"/>
<path fill-rule="evenodd" clip-rule="evenodd" d="M679.138 341.261L679.237 341.162C680.32 340.869 681.276 340.227 681.957 339.335C682.637 338.443 683.004 337.351 683 336.229C683 333.368 680.723 331.099 677.851 331.099H677.752V331H491V427C589.426 365.73 679.138 341.261 679.138 341.261ZM273.459 428.471C273.459 428.471 275.539 418.783 280.687 403.164C272.172 406.229 263.459 409.689 254.548 413.742C254.548 413.742 262.469 377.561 285.44 331H139L314.55 590C363.066 519.22 428.216 466.135 490 427.483C483.564 423.924 393.958 376.276 273.459 428.471Z" fill="white"/>
<path fill-rule="evenodd" clip-rule="evenodd" d="M78.7681 283.779C77.6816 284.076 76.7236 284.724 76.0424 285.621C75.3612 286.518 74.9948 287.615 75.0001 288.741C75.0001 291.618 77.2801 293.901 80.1561 293.901H80.2561V294H305.65C338.572 240.809 390.334 183.153 469.762 151.397V179.283C476.406 176.206 483.248 173.13 490.388 170.45V294H619L443.286 34C317.053 218.58 78.8671 283.68 78.8671 283.68L78.7681 283.779Z" fill="#00A73C"/>
<path fill-rule="evenodd" clip-rule="evenodd" d="M470.305 178.821V397.869C470.305 397.869 391.104 362.682 280.263 402.626C275.09 418.386 273 428 273 428C393.99 375.568 484.035 423.441 490.602 427.009C490.901 427.108 491 427.207 491 427.207V170C483.936 172.775 477.071 175.749 470.305 178.821Z" fill="#0B318F"/>
<path fill-rule="evenodd" clip-rule="evenodd" d="M281.022 403.365C391.243 363.308 470 398.594 470 398.594V151C390.748 182.807 339.1 240.555 306.252 293.831C298.435 306.554 291.609 318.978 285.87 330.806C262.915 377.621 255 414 255 414C263.707 410.024 272.414 406.446 281.022 403.365Z" fill="white"/>
</g>
</g>
<defs>
<clipPath id="clip0_198_1614">
<rect width="758" height="624" fill="white"/>
</clipPath>
</defs>
</svg>
