<svg width="319" height="319" viewBox="0 0 319 319" fill="none" xmlns="http://www.w3.org/2000/svg">
<circle cx="159.5" cy="159.5" r="159.5" fill="url(#paint0_radial_93_3861)"/>
<rect x="122.909" y="250.855" width="120.91" height="44.5458" rx="22.2729" transform="rotate(-33.1049 122.909 250.855)" fill="url(#paint1_linear_93_3861)"/>
<path d="M173.55 217.836L205.534 196.982C215.838 190.263 229.638 193.17 236.356 203.474C243.075 213.779 240.168 227.578 229.864 234.297L197.88 255.151L173.55 217.836Z" fill="#47CFF6"/>
<rect x="172.156" y="226.949" width="11.1741" height="40.8578" rx="5.58704" transform="rotate(56.7477 172.156 226.949)" fill="white"/>
<rect x="215.108" y="195.131" width="11.1741" height="12.3194" rx="5.58704" transform="rotate(56.7477 215.108 195.131)" fill="white"/>
<path d="M195.598 207.739C198.179 206.047 201.642 206.768 203.334 209.348C205.026 211.928 204.306 215.392 201.726 217.084L200.768 217.712C198.187 219.404 194.724 218.683 193.032 216.103C191.34 213.523 192.06 210.059 194.641 208.367L195.598 207.739Z" fill="white"/>
<path fill-rule="evenodd" clip-rule="evenodd" d="M172.273 86.4547C174.03 86.4547 175.455 85.0301 175.455 83.2729L175.455 64.1818C175.455 62.4245 176.879 61 178.636 61L197.727 61C199.485 61 200.909 62.4245 200.909 64.1818V83.2729C200.909 85.0301 202.334 86.4547 204.091 86.4547H223.182C224.939 86.4547 226.364 87.8793 226.364 89.6365V108.728C226.364 110.485 224.939 111.909 223.182 111.909H204.091C202.334 111.909 200.909 113.334 200.909 115.091V134.182C200.909 135.94 199.485 137.364 197.727 137.364L178.636 137.364C176.879 137.364 175.455 135.94 175.455 134.182L175.455 115.091C175.455 113.334 174.03 111.909 172.273 111.909H153.182C151.424 111.909 150 110.485 150 108.728V89.6365C150 87.8793 151.424 86.4547 153.182 86.4547H172.273Z" fill="#47CFF6"/>
<path d="M94.0297 101.828C94.1671 100.179 95.5457 98.9102 97.2005 98.9102H110.436C112.091 98.9102 113.47 100.179 113.607 101.828L116.259 133.646C116.413 135.501 114.949 137.092 113.088 137.092H94.549C92.6875 137.092 91.2236 135.501 91.3781 133.646L94.0297 101.828Z" fill="#DAF3FA"/>
<path d="M94.0297 101.828C94.1671 100.179 95.5457 98.9102 97.2005 98.9102H110.436C112.091 98.9102 113.47 100.179 113.607 101.828L116.259 133.646C116.413 135.501 114.949 137.092 113.088 137.092H94.549C92.6875 137.092 91.2236 135.501 91.3781 133.646L94.0297 101.828Z" fill="url(#paint2_linear_93_3861)" fill-opacity="0.2"/>
<path d="M71.9999 140.273C71.9999 126.215 83.3964 114.818 97.4547 114.818H110.182C124.24 114.818 135.637 126.215 135.637 140.273V207.092C135.637 210.606 132.788 213.455 129.273 213.455H78.3636C74.8491 213.455 71.9999 210.606 71.9999 207.092V140.273Z" fill="#DAF3FA"/>
<path d="M71.9999 140.273C71.9999 126.215 83.3964 114.818 97.4547 114.818H110.182C124.24 114.818 135.637 126.215 135.637 140.273V207.092C135.637 210.606 132.788 213.455 129.273 213.455H78.3636C74.8491 213.455 71.9999 210.606 71.9999 207.092V140.273Z" fill="url(#paint3_linear_93_3861)" fill-opacity="0.2"/>
<path d="M78.3636 98.9092C78.3636 90.1228 85.4864 83 94.2728 83H113.364C122.15 83 129.273 90.1228 129.273 98.9092V105.273C129.273 107.03 127.849 108.455 126.091 108.455H81.5455C79.7882 108.455 78.3636 107.03 78.3636 105.273V98.9092Z" fill="#BDEDFC"/>
<rect x="71.9999" y="149.818" width="63.6368" height="54.0913" fill="#47CFF6"/>
<rect x="81.5455" y="143.455" width="9.54552" height="57.2731" rx="4.77276" fill="white"/>
<rect x="81.5455" y="127.545" width="9.54552" height="9.54552" rx="4.77276" fill="white"/>
<defs>
<radialGradient id="paint0_radial_93_3861" cx="0" cy="0" r="1" gradientUnits="userSpaceOnUse" gradientTransform="translate(159.5 159.5) rotate(90) scale(159.5)">
<stop stop-color="#BDEDFC" stop-opacity="0.4"/>
<stop offset="1" stop-color="white"/>
</radialGradient>
<linearGradient id="paint1_linear_93_3861" x1="113.358" y1="115.429" x2="69.0686" y2="434.75" gradientUnits="userSpaceOnUse">
<stop offset="0.400559" stop-color="#F5F9FA"/>
<stop offset="0.881043" stop-color="#4AD4FB"/>
</linearGradient>
<linearGradient id="paint2_linear_93_3861" x1="103.818" y1="98.9102" x2="103.818" y2="137.092" gradientUnits="userSpaceOnUse">
<stop stop-color="white" stop-opacity="0.2"/>
<stop offset="1" stop-color="#47CFF6"/>
</linearGradient>
<linearGradient id="paint3_linear_93_3861" x1="103.818" y1="114.818" x2="103.818" y2="213.455" gradientUnits="userSpaceOnUse">
<stop stop-color="white" stop-opacity="0.2"/>
<stop offset="1" stop-color="#47CFF6"/>
</linearGradient>
</defs>
</svg>
