<svg width="757" height="442" viewBox="0 0 757 442" fill="none" xmlns="http://www.w3.org/2000/svg">
<g clip-path="url(#clip0_198_1531)">
<mask id="mask0_198_1531" style="mask-type:luminance" maskUnits="userSpaceOnUse" x="0" y="0" width="757" height="442">
<path d="M0 0H757V442H0V0Z" fill="white"/>
</mask>
<g mask="url(#mask0_198_1531)">
<path fill-rule="evenodd" clip-rule="evenodd" d="M729.832 406.924C725.521 231.246 618.054 80.07 463.143 39.575C450.899 37.896 438.432 37 425.815 37C232.102 37 93 213.779 93 416.479C93 424.914 93.093 432.845 93.541 441H93.56C93.13 433.685 93.112 426.071 93.112 418.681C93.112 286.092 165.864 169.123 273.667 124.205C315.661 94.458 366.595 75.2 425.834 75.965C594.052 78.13 723.692 225.237 723.692 415.751C723.692 424.186 723.617 432.696 723.15 441H729.552C730.112 430.027 730.075 417.169 729.832 406.924Z" fill="#EE9116"/>
<path fill-rule="evenodd" clip-rule="evenodd" d="M141 313C141.414 312.424 141.846 311.866 142.278 311.326C143.444 307.527 144.685 303.751 146 300C144.239 304.296 142.572 308.631 141 313Z" fill="#EE9116"/>
<path fill-rule="evenodd" clip-rule="evenodd" d="M371.728 105C336.765 105 303.743 111.916 273.483 124.537C165.742 169.408 93 286.254 93 418.704C93 426.087 93.019 433.693 93.448 441H99.008C99.381 394.451 114.772 349.711 141.022 313.099C142.573 308.575 144.227 304.087 145.984 299.639C184.342 202.534 268.352 136.598 370.981 136.598C418.742 136.598 466.017 153.115 506.744 181.897C582.098 214.558 635.418 289.927 649 378.867C631.276 222.089 510.252 105 371.728 105Z" fill="#FFE600"/>
<path fill-rule="evenodd" clip-rule="evenodd" d="M651.937 423.849C651.937 408.614 650.921 393.64 649 379C650.323 392.468 650.969 406.233 650.921 420.222C650.904 425.505 651.114 433.745 651.114 441H651.873C652.115 435.215 651.937 429.839 651.937 423.849Z" fill="#009742"/>
<path fill-rule="evenodd" clip-rule="evenodd" d="M650.758 420.12C650.814 406.294 650.072 392.476 648.537 378.735C634.955 289.632 581.634 214.126 506.28 181.406C480.496 170.219 452.119 164 421.858 164C353.537 164 298.239 197.822 271 227.685C283.478 225.305 296.152 224.11 308.855 224.118C311.877 224.118 314.881 224.192 317.884 224.342C338.892 208.187 375.869 190.221 422.604 190.501C527.418 191.117 627.157 290.211 627.157 421.615C627.157 427.591 626.933 434.874 626.56 441H651C650.981 433.698 650.739 425.424 650.758 420.12Z" fill="#009742"/>
<path fill-rule="evenodd" clip-rule="evenodd" d="M533 441C532.476 437.97 531.808 434.967 531 432C531.737 435 532.421 437.982 533 441Z" fill="#22298C"/>
<path fill-rule="evenodd" clip-rule="evenodd" d="M531.6 431.453C522.077 378.732 487.383 331.761 439.563 306.229C415.551 293.407 388.233 286 359.141 286C266.507 286 196.075 353.646 187 441H187.317C196.15 411.02 216.446 383.05 242.158 362.877C270.522 329.454 312.684 309.467 359.141 309.467C436.184 309.467 491.08 361.834 511.396 441H533C532.608 437.799 532.122 434.636 531.6 431.453Z" fill="#22298C"/>
<path fill-rule="evenodd" clip-rule="evenodd" d="M324.762 331C295.681 331 266.338 343.185 241.892 362.426C216.137 382.715 195.84 410.847 187 441H210.96C235.537 387.001 270.936 356.661 325.771 356.661C383.243 356.661 422.398 386.215 445.274 441H474C450.227 379.814 394.868 331 324.762 331Z" fill="#912589"/>
<path fill-rule="evenodd" clip-rule="evenodd" d="M756.959 406.844C756.959 188.495 590.992 -0.464946 379.343 1.00905C164.073 2.48205 1 187.749 1 406.098C1 417.678 2.027 428.699 2.998 439.981H50.248C43.453 209.735 154.626 114.09 206.844 79.2371C259.192 47.1061 315.553 30.249 379.344 30.249C408.281 30.249 436.098 33.941 462.552 40.859C616.719 81.139 723.692 231.441 727.967 406.117C728.228 416.317 728.266 429.091 727.668 440H756.66C757.164 429.259 756.959 417.026 756.959 406.844Z" fill="#BD2228"/>
<path fill-rule="evenodd" clip-rule="evenodd" d="M318.245 224.224C315.239 224.075 312.23 224 309.22 224C296.524 223.993 283.856 225.188 271.386 227.569C218.244 237.734 173.045 268.846 142.26 311.058C141.831 311.637 141.421 312.198 140.992 312.796C114.775 349.495 99.372 394.341 99 441H120.984C136.386 330.155 207.112 251.375 309.537 251.375C361.411 251.375 405.006 271.556 439.092 305.676C486.827 331.313 521.49 378.477 531 431.414C512.26 319.579 421.49 229.232 318.245 224.224Z" fill="#0082CA"/>
</g>
</g>
<defs>
<clipPath id="clip0_198_1531">
<rect width="757" height="442" fill="white"/>
</clipPath>
</defs>
</svg>
