<svg width="88" height="114" viewBox="0 0 88 114" fill="none" xmlns="http://www.w3.org/2000/svg">
<path fill-rule="evenodd" clip-rule="evenodd" d="M76.5924 26.1412C76.5924 26.1413 76.5923 26.1414 76.5922 26.1413L19.7621 17.7037C18.7636 17.5555 17.8112 18.1745 17.5412 19.1471L16.2027 23.9691C15.8857 25.1113 16.626 26.2769 17.7945 26.4757L55.4504 32.8815C55.5457 32.8977 55.6396 32.9208 55.7314 32.9506L57.8241 33.6286C59.6333 34.2147 59.6803 36.7573 57.8939 37.4098L55.3466 38.3402C55.1933 38.3962 55.0474 38.4708 54.9122 38.5623L21.8821 60.9076C21.2392 61.3425 20.906 62.1102 21.0274 62.8769L27.3757 102.979C27.5484 104.07 28.5728 104.815 29.6638 104.642L85.5933 95.7884C86.6843 95.6157 87.4287 94.5913 87.256 93.5003L76.593 26.1418C76.593 26.1417 76.593 26.1417 76.593 26.1417L76.5931 26.1416C76.5931 26.1415 76.5931 26.1415 76.593 26.1415C76.593 26.1415 76.593 26.1414 76.593 26.1414L76.5929 26.1413C76.5929 26.141 76.5926 26.141 76.5925 26.1412L76.5924 26.1412Z" fill="url(#paint0_linear_664_7688)"/>
<rect x="22.2559" y="70.6328" width="60.6259" height="29.5153" transform="rotate(-8.99535 22.2559 70.6328)" fill="url(#paint1_radial_664_7688)"/>
<path fill-rule="evenodd" clip-rule="evenodd" d="M59.9265 74.446C59.0563 74.5838 58.2391 73.99 58.1013 73.1197L57.7139 70.6725C57.5761 69.8022 56.7589 69.2084 55.8887 69.3461L48.9634 70.4424C48.0932 70.5802 47.4993 71.3974 47.6371 72.2677L48.0245 74.7148C48.1623 75.5851 47.5684 76.4023 46.6981 76.5401L44.2512 76.9274C43.3809 77.0652 42.787 77.8824 42.9248 78.7527L44.0211 85.6779C44.1588 86.5482 44.976 87.142 45.8463 87.0043L48.2933 86.6169C49.1636 86.4791 49.9808 87.073 50.1186 87.9432L50.5058 90.3893C50.6435 91.2596 51.4607 91.8534 52.331 91.7157L59.2562 90.6194C60.1265 90.4816 60.7204 89.6644 60.5826 88.7942L60.1954 86.3481C60.0576 85.4778 60.6514 84.6606 61.5217 84.5228L63.968 84.1356C64.8383 83.9978 65.4321 83.1806 65.2943 82.3103L64.1981 75.3851C64.0603 74.5148 63.2431 73.921 62.3728 74.0588L59.9265 74.446Z" fill="#FF8CA3"/>
<circle cx="18.779" cy="44.0525" r="1.59542" fill="#BAECFF"/>
<circle cx="2.56699" cy="44.9962" r="1.59542" transform="rotate(26.1205 2.56699 44.9962)" fill="#BAECFF"/>
<circle cx="5.18727" cy="32.6762" r="1.59542" transform="rotate(59.34 5.18727 32.6762)" fill="#BAECFF"/>
<circle cx="24.362" cy="40.861" r="1.59542" fill="#BAECFF"/>
<circle cx="8.98496" cy="44.5919" r="1.59542" transform="rotate(26.1205 8.98496 44.5919)" fill="#BAECFF"/>
<circle cx="10.7791" cy="35.8539" r="1.59542" transform="rotate(59.34 10.7791 35.8539)" fill="#BAECFF"/>
<circle cx="25.1599" cy="48.0388" r="1.59542" fill="#BAECFF"/>
<circle cx="6.54063" cy="51.3868" r="1.59542" transform="rotate(26.1205 6.54063 51.3868)" fill="#BAECFF"/>
<circle cx="5.01052" cy="40.1996" r="1.59542" transform="rotate(59.34 5.01052 40.1996)" fill="#BAECFF"/>
<circle cx="33.9353" cy="43.2536" r="1.59542" fill="#BAECFF"/>
<circle cx="16.526" cy="50.9532" r="1.59542" transform="rotate(26.1205 16.526 50.9532)" fill="#BAECFF"/>
<circle cx="13.6013" cy="45.309" r="1.59542" transform="rotate(59.34 13.6013 45.309)" fill="#BAECFF"/>
<defs>
<linearGradient id="paint0_linear_664_7688" x1="43.9461" y1="13.7819" x2="59.0594" y2="99.0962" gradientUnits="userSpaceOnUse">
<stop stop-color="#FFEAEF"/>
<stop offset="0.435481" stop-color="#FFF2F5"/>
<stop offset="0.855203" stop-color="#BAECFF"/>
<stop offset="1" stop-color="#FFEAEF"/>
</linearGradient>
<radialGradient id="paint1_radial_664_7688" cx="0" cy="0" r="1" gradientUnits="userSpaceOnUse" gradientTransform="translate(52.5688 85.3904) rotate(90) scale(28.3187 58.1681)">
<stop stop-color="white"/>
<stop offset="1" stop-color="#FFF3F5"/>
</radialGradient>
</defs>
</svg>
