<svg width="758" height="562" viewBox="0 0 758 562" fill="none" xmlns="http://www.w3.org/2000/svg">
<g clip-path="url(#clip0_198_1607)">
<mask id="mask0_198_1607" style="mask-type:luminance" maskUnits="userSpaceOnUse" x="0" y="0" width="758" height="562">
<path d="M0 0H758V562H0V0Z" fill="white"/>
</mask>
<g mask="url(#mask0_198_1607)">
<path fill-rule="evenodd" clip-rule="evenodd" d="M277.823 222.788L292.216 247.398L352.187 145.465C352.187 145.465 361.193 128.679 379.795 128.679C379.795 128.679 396.586 128.679 406.771 144.329L451.128 238.395L354.586 413.444H376.765L478.105 229.981C478.105 229.981 484.67 214.416 499.105 215.594C499.105 215.594 514.718 215.594 518.885 230.57L641.309 489C712.643 437.424 757 365.528 757 285.176C757 128.679 587.862 1 379.248 1C171.139 1 2 128.679 2 285.176C2 364.308 45.137 436.835 115.292 487.78C115.292 487.78 227.406 240.751 238.811 224.008C238.811 224.008 245.418 213.196 257.412 213.196C257.454 213.196 270.038 212.018 277.823 222.788Z" fill="#083F8F"/>
<path fill-rule="evenodd" clip-rule="evenodd" d="M1 561H748C748 561 611.272 472.577 379.927 471.402C379.927 471.361 173.657 459.998 1 561Z" fill="#108852"/>
</g>
</g>
<defs>
<clipPath id="clip0_198_1607">
<rect width="758" height="562" fill="white"/>
</clipPath>
</defs>
</svg>
