<svg width="761" height="531" viewBox="0 0 761 531" fill="none" xmlns="http://www.w3.org/2000/svg">
<g clip-path="url(#clip0_198_1570)">
<mask id="mask0_198_1570" style="mask-type:luminance" maskUnits="userSpaceOnUse" x="0" y="0" width="761" height="531">
<path d="M0 0H761V531H0V0Z" fill="white"/>
</mask>
<g mask="url(#mask0_198_1570)">
<path fill-rule="evenodd" clip-rule="evenodd" d="M154.318 254.73C153.554 254.661 153.067 253.972 153.137 253.282C153.206 252.524 153.901 252.042 154.666 252.11L283.305 268.24C274.687 246.665 247.097 216.68 235.213 207.788C235.213 207.788 228.263 202.549 215.615 203.031C185.522 204.272 115.469 204.41 90.381 207.029C83.083 207.925 76.898 210.131 75.231 215.646C73.423 221.574 82.806 232.603 84.056 234.05L98.512 250.525C172.457 334.69 244.178 300.914 277.884 290.367C280.734 289.471 283.027 288.093 284 286.163L154.318 254.73Z" fill="url(#paint0_linear_198_1570)"/>
<path fill-rule="evenodd" clip-rule="evenodd" d="M685.773 215.637C684.175 210.127 677.922 207.922 670.628 207.027C645.616 204.409 575.516 204.271 545.433 203.031C532.789 202.549 525.841 207.784 525.841 207.784C513.891 216.671 486.379 246.636 477.764 268.197L606.363 252.078C607.127 252.009 607.752 252.491 607.891 253.249C607.961 254.006 607.474 254.626 606.71 254.764H606.641L477 286.176C477.973 288.105 480.265 289.482 483.114 290.378C516.879 300.917 588.577 334.671 662.499 250.562L677.089 233.961C678.756 231.894 687.51 221.424 685.773 215.637Z" fill="url(#paint1_linear_198_1570)"/>
<path fill-rule="evenodd" clip-rule="evenodd" d="M316.268 126.91C293.609 110.126 267.555 90.359 223.763 68.026C209.905 61.021 196.808 59.009 191.681 63.102C186.622 67.194 184.613 71.771 191.057 93.341C221.061 194.395 230.761 197.169 236.374 201.954C245.936 210.139 297.559 248.909 322.296 244.678L267.555 161.797C267.07 161.172 267.209 160.34 267.763 159.924C268.387 159.439 269.218 159.577 269.634 160.132L335.254 233.304C346.548 205.769 329.987 137.036 316.268 126.91Z" fill="url(#paint2_linear_198_1570)"/>
<path fill-rule="evenodd" clip-rule="evenodd" d="M432.634 122.026C425.803 95.8788 417.937 65.5718 399.308 23.0578C394.754 12.7238 389.097 4.95579 384.198 2.04379C381.3 0.378794 378.816 1.07279 377.781 1.62679C372.468 4.19279 366.397 12.2378 361.705 23.0578C343.007 65.5718 335.141 95.8788 328.379 122.026C324.585 136.659 349.975 202.407 372.399 216L379.092 94.4918C379.092 93.6598 379.782 93.1048 380.472 93.1048C381.162 93.1048 381.852 93.6598 381.852 94.4918L388.614 216C410.969 202.407 436.359 136.659 432.634 122.026Z" fill="url(#paint3_linear_198_1570)"/>
<path fill-rule="evenodd" clip-rule="evenodd" d="M569.319 63.1309C564.192 58.9719 551.095 61.0519 537.237 68.0529C493.514 90.3739 467.39 110.13 444.801 126.905C431.012 137.026 414.451 205.722 425.746 233.38L491.296 160.179C491.781 159.555 492.613 159.485 493.236 159.971C493.791 160.456 493.929 161.218 493.444 161.842L438.634 244.679C463.371 248.908 515.063 210.089 524.626 201.978C530.238 197.195 539.87 194.422 569.943 93.4239C576.387 71.7959 574.378 67.2209 569.319 63.1309Z" fill="url(#paint4_linear_198_1570)"/>
<path fill-rule="evenodd" clip-rule="evenodd" d="M758.332 423.6C740.715 402.432 702.431 347.81 649.79 320.256C633.214 311.581 612.685 311.997 591.948 314.773C587.995 315.328 579.88 316.855 579.741 316.855C447.064 346.908 315.843 462.05 279.64 518.685C279.64 518.685 273.953 527.568 276.796 530.553C279.016 532.982 291.291 524.723 291.291 524.723C499.219 387.024 709.436 422.975 753.338 429.152C753.338 429.152 758.47 430.055 759.649 428.458C760.69 427.001 759.164 424.502 758.332 423.6Z" fill="url(#paint5_linear_198_1570)"/>
<path fill-rule="evenodd" clip-rule="evenodd" d="M370.673 398.234C353.262 381.305 279.663 334.112 167.911 316.908C140.303 312.693 112.833 314.904 92.855 329.207C52.414 358.227 10.238 406.456 1.77503 422.763C1.77503 422.763 0.180027 425.596 1.56703 427.254C3.23203 429.258 6.70003 428.567 6.70003 428.567C147.794 384.207 294.438 432.92 320.243 449.088C321.075 449.572 324.128 451.507 327.665 447.637C335.99 439 362.002 415.024 371.228 406.94C375.39 403.347 370.951 398.579 370.673 398.234Z" fill="url(#paint6_linear_198_1570)"/>
</g>
</g>
<defs>
<linearGradient id="paint0_linear_198_1570" x1="289.642" y1="286.708" x2="69.3585" y2="222.292" gradientUnits="userSpaceOnUse">
<stop stop-color="#F48120"/>
<stop offset="0.4" stop-color="#FCB813"/>
<stop offset="1" stop-color="#FCB813"/>
</linearGradient>
<linearGradient id="paint1_linear_198_1570" x1="471.429" y1="287.314" x2="691.571" y2="221.687" gradientUnits="userSpaceOnUse">
<stop stop-color="#F48120"/>
<stop offset="0.4" stop-color="#FCB813"/>
<stop offset="1" stop-color="#FCB813"/>
</linearGradient>
<linearGradient id="paint2_linear_198_1570" x1="339.861" y1="244.275" x2="186.139" y2="61.725" gradientUnits="userSpaceOnUse">
<stop stop-color="#F48120"/>
<stop offset="0.4" stop-color="#FCB813"/>
<stop offset="1" stop-color="#FCB813"/>
</linearGradient>
<linearGradient id="paint3_linear_198_1570" x1="383.157" y1="217.218" x2="377.843" y2="-0.218203" gradientUnits="userSpaceOnUse">
<stop stop-color="#F48120"/>
<stop offset="0.4" stop-color="#FCB813"/>
<stop offset="1" stop-color="#FCB813"/>
</linearGradient>
<linearGradient id="paint4_linear_198_1570" x1="427.469" y1="249.017" x2="568.532" y2="56.9829" gradientUnits="userSpaceOnUse">
<stop stop-color="#F48120"/>
<stop offset="0.4" stop-color="#FCB813"/>
<stop offset="1" stop-color="#FCB813"/>
</linearGradient>
<linearGradient id="paint5_linear_198_1570" x1="747.505" y1="291.093" x2="288.495" y2="552.907" gradientUnits="userSpaceOnUse">
<stop stop-color="#10B0E6"/>
<stop offset="0.3" stop-color="#10B0E6"/>
<stop offset="1" stop-color="#006EB6"/>
</linearGradient>
<linearGradient id="paint6_linear_198_1570" x1="13.8123" y1="290.802" x2="360.188" y2="474.198" gradientUnits="userSpaceOnUse">
<stop stop-color="#98C93C"/>
<stop offset="0.3" stop-color="#98C93C"/>
<stop offset="1" stop-color="#0DB04B"/>
</linearGradient>
<clipPath id="clip0_198_1570">
<rect width="761" height="531" fill="white"/>
</clipPath>
</defs>
</svg>
