<svg width="758" height="644" viewBox="0 0 758 644" fill="none" xmlns="http://www.w3.org/2000/svg">
<g clip-path="url(#clip0_198_1597)">
<mask id="mask0_198_1597" style="mask-type:luminance" maskUnits="userSpaceOnUse" x="0" y="0" width="758" height="644">
<path d="M0 0H758V644H0V0Z" fill="white"/>
</mask>
<g mask="url(#mask0_198_1597)">
<path fill-rule="evenodd" clip-rule="evenodd" d="M2.00008 344.074C1.92608 402.154 53.6031 492.557 195.713 483.332C201.25 553.441 238.162 642 376.581 642C505.255 642 551.838 553.441 551.912 475.952C551.912 475.952 753.081 483.332 755 344L2.00008 344.074Z" fill="#5AB651" stroke="#009944" stroke-width="2.19906" stroke-miterlimit="8"/>
<path fill-rule="evenodd" clip-rule="evenodd" d="M755.828 344C759.523 240.521 704.095 163.872 548.895 176.807C548.895 106.588 498.492 2 377.066 2C251.946 2 196 93.653 195.926 171.263C195.926 171.263 2 162.911 2 344H755.828Z" fill="#3D62AD" stroke="#584C9D" stroke-width="2.19906" stroke-miterlimit="8"/>
<path fill-rule="evenodd" clip-rule="evenodd" d="M273.144 237.727C273.144 237.727 314.97 250.072 312.462 294.424C312.462 294.424 194.434 343.728 192 462C192 462 212.876 434.872 259.645 420.087C259.645 420.087 329.724 400.351 380.107 328.944C380.107 328.944 408.36 348.681 403.491 410.256C403.491 410.256 476.004 394.216 510.454 322.809C510.454 322.809 439.121 325.248 431.744 298.194C431.744 298.194 459.997 283.41 487.069 231.666C487.069 231.666 513.478 188.57 575 173.786C575 173.786 460.071 147.914 369.042 253.842C369.042 253.694 312.462 197.071 273.144 237.727Z" fill="white" stroke="white" stroke-width="2.19906" stroke-miterlimit="8"/>
<path fill-rule="evenodd" clip-rule="evenodd" d="M10 382H749L746.427 389.482L746.161 390H12.34L10 382ZM40 432H713L707.88 436.08L702.917 439H46.536L45.964 438.546L40 432ZM200 510H549L547.221 518H202.004L200 510ZM1.078 341H756.925L756.926 343.418H757L756.693 349H1.621L1.074 343.499H1L1.078 341Z" fill="white"/>
<path fill-rule="evenodd" clip-rule="evenodd" d="M118.754 348.898L17.0528 389.749L14.3018 382.9L116.003 342.049L118.754 348.898ZM246.472 343.68L250.878 347.967L124.052 478.302L115.886 476.111L244.751 343.68H246.472ZM347.175 343.67L351.593 345.488L247.101 599.495L241.469 593.786L344.36 343.67H347.175ZM407.205 343.664L515.836 583.958L512.797 587.85L510.542 590.165L400.464 346.67L407.114 343.664H407.205ZM511.062 343.654L660.332 459.386L653.121 461.946L651.983 462.252L504.474 347.885L507.755 343.654H511.062ZM633.585 341.576L749.04 382.899L746.553 389.848L631.098 348.525L633.585 341.576Z" fill="white"/>
</g>
</g>
<defs>
<clipPath id="clip0_198_1597">
<rect width="758" height="644" fill="white"/>
</clipPath>
</defs>
</svg>
