<svg width="758" height="712" viewBox="0 0 758 712" fill="none" xmlns="http://www.w3.org/2000/svg">
<g clip-path="url(#clip0_198_1624)">
<mask id="mask0_198_1624" style="mask-type:luminance" maskUnits="userSpaceOnUse" x="0" y="0" width="758" height="712">
<path d="M0 0H758V712H0V0Z" fill="white"/>
</mask>
<g mask="url(#mask0_198_1624)">
<path fill-rule="evenodd" clip-rule="evenodd" d="M185.27 522L183.68 521.901C81.208 516.64 1 432.073 1 329.64C1 223.435 87.569 136.982 193.917 136.982H197.296C221.647 57.676 296.09 1 381.566 1C467.042 1 541.485 57.676 565.935 137.081C608.474 136.089 648.031 148.198 681.626 172.814C729.73 208.05 746.925 249.54 753.385 276.438C757.659 294.205 757.261 311.575 756.566 321.005C756.268 324.975 752.59 327.655 748.714 326.861L717.307 320.112C605.095 296.091 510.773 320.707 428.876 395.15C361.39 456.689 287.045 517.137 186.959 522H185.27ZM193.917 201.996C123.449 201.996 66.101 259.267 66.101 329.64C66.101 397.036 118.38 452.62 185.468 456.987C263.291 452.62 324.317 402.594 385.144 347.209C464.954 274.553 555.499 241.202 659.362 247.257C661.648 247.356 663.039 244.775 661.548 243.088C649.323 228.696 601.219 194.651 545.759 204.179L516.538 209.043C514.351 209.44 512.364 207.852 512.065 205.668L508.09 176.387C499.741 113.458 445.275 66.013 381.566 66.013C317.856 66.013 263.391 113.458 254.943 176.387L250.967 206.065C250.669 208.249 248.582 209.738 246.395 209.341L216.876 203.981C209.123 202.69 201.471 201.996 193.917 201.996Z" fill="#1C7C38"/>
<path fill-rule="evenodd" clip-rule="evenodd" d="M463 276.243C442.674 254.001 413.48 240 380.898 240C319.62 240 270 289.449 270 350.515C270 371.963 276.178 392.021 286.839 409C317.926 389.737 347.22 364.417 376.414 337.806C404.213 312.783 433.009 292.229 463 276.243Z" fill="#F18D00"/>
<path fill-rule="evenodd" clip-rule="evenodd" d="M424.392 462.742C319.284 558.535 220.137 610.804 80.8548 554.759C76.4838 552.97 71.7148 556.448 72.0128 561.218C73.1058 581.887 77.4768 601.761 84.6298 620.244C86.0198 623.921 89.1998 626.703 92.9748 627.896C126.355 637.932 158.841 643 190.731 643C224.509 643 257.69 637.336 290.573 626.107C362.499 601.563 420.716 554.063 468.203 510.738C542.712 442.768 621.592 406.299 748.457 446.842C752.629 448.234 757 445.153 757 440.681V386.524C757 383.643 755.013 381.059 752.232 380.264C594.868 336.143 498.603 395.07 424.392 462.742Z" fill="#1C7C38"/>
<path fill-rule="evenodd" clip-rule="evenodd" d="M448.79 590.69C416.478 620.81 383.767 644.369 350.56 661.466C346.782 663.355 345.887 668.126 348.472 671.407C360.409 686.227 374.482 699.192 390.23 709.876C391.253 710.555 392.442 710.942 393.668 710.994C394.895 711.047 396.113 710.763 397.19 710.174C429.9 691.486 461.914 667.53 493.232 638.305C570.086 566.634 634.213 520.412 748.251 563.155C752.526 564.746 757 561.565 757 557.092V502.419C757 499.536 755.111 497.052 752.427 496.157C615.025 453.015 529.621 515.342 448.79 590.69Z" fill="#1C7C38"/>
</g>
</g>
<defs>
<clipPath id="clip0_198_1624">
<rect width="758" height="712" fill="white"/>
</clipPath>
</defs>
</svg>
