<svg width="758" height="238" viewBox="0 0 758 238" fill="none" xmlns="http://www.w3.org/2000/svg">
<g clip-path="url(#clip0_198_1591)">
<mask id="mask0_198_1591" style="mask-type:luminance" maskUnits="userSpaceOnUse" x="0" y="0" width="758" height="238">
<path d="M0 0H758V238H0V0Z" fill="white"/>
</mask>
<g mask="url(#mask0_198_1591)">
<path fill-rule="evenodd" clip-rule="evenodd" d="M446.71 180.175C497.532 180.175 538.889 139.992 538.889 90.577C538.889 41.163 497.532 1 446.71 1C423.099 1 400.674 9.74401 383.563 25.601C377.804 30.937 377.465 39.914 382.801 45.672C388.137 51.41 397.116 51.748 402.855 46.434C414.692 35.446 430.256 29.412 446.689 29.412C481.841 29.412 510.449 56.872 510.449 90.598C510.449 124.346 481.841 151.806 446.689 151.806H445.566V83.231C445.566 75.397 439.214 69.046 431.379 69.046C423.544 69.046 417.17 75.397 417.17 83.231V210.028H400.928L338.395 77.176C337.246 74.7383 335.428 72.6775 333.152 71.2341C330.876 69.7907 328.237 69.0242 325.542 69.024C322.849 69.0217 320.211 69.7874 317.938 71.2314C315.665 72.6753 313.851 74.7374 312.709 77.176L250.155 210.028H233.956V83.209C233.957 80.1385 232.963 77.1502 231.123 74.6922C229.283 72.2342 226.696 70.4387 223.749 69.575C217.693 67.818 211.192 70.252 207.804 75.567L147.537 170.034L87.27 75.567C83.903 70.252 77.381 67.818 71.325 69.575C65.269 71.353 61.097 76.9 61.097 83.209V210.049H1V237H76.428C83.861 237 89.896 230.966 89.896 223.535L89.918 132.539L135.573 204.078C136.855 206.089 138.623 207.745 140.714 208.892C142.805 210.039 145.152 210.641 147.537 210.641C152.408 210.641 156.918 208.164 159.523 204.078L205.178 132.518V223.535C205.178 230.987 211.213 237 218.646 237H259.854C262.546 237 265.183 236.235 267.458 234.796C269.734 233.357 271.554 231.302 272.708 228.87L325.584 116.576L378.46 228.87C379.61 231.305 381.43 233.363 383.706 234.802C385.982 236.242 388.621 237.004 391.314 237H601.908C608.642 237 614.444 233.697 615.799 227.134C617.176 220.55 613.745 213.902 607.583 211.234C584.798 201.284 570.059 178.82 570.081 153.965C570.081 119.54 598.075 91.53 632.528 91.53C666.96 91.53 694.976 119.54 694.976 153.965C694.976 178.799 680.238 201.284 657.452 211.234C654.463 212.535 652.014 214.827 650.517 217.723C649.021 220.62 648.568 223.943 649.236 227.134C650.612 233.719 656.415 237 663.149 237H757V210.028H703.997C716.3 194.339 723.373 174.713 723.373 153.944C723.373 103.852 682.609 63.118 632.528 63.118C582.426 63.118 541.684 103.873 541.684 153.944C541.67 174.283 548.494 194.035 561.06 210.028H445.63V180.175H446.71Z" fill="#00A3E0"/>
</g>
</g>
<defs>
<clipPath id="clip0_198_1591">
<rect width="758" height="238" fill="white"/>
</clipPath>
</defs>
</svg>
