<svg width="740" height="406" viewBox="0 0 740 406" fill="none" xmlns="http://www.w3.org/2000/svg">
<g clip-path="url(#clip0_404_9098)">
<mask id="mask0_404_9098" style="mask-type:luminance" maskUnits="userSpaceOnUse" x="0" y="0" width="740" height="406">
<path d="M0 0H740V406H0V0Z" fill="white"/>
</mask>
<g mask="url(#mask0_404_9098)">
<mask id="mask1_404_9098" style="mask-type:luminance" maskUnits="userSpaceOnUse" x="1" y="1" width="738" height="404">
<path d="M1 1H739V405H1V1Z" fill="white"/>
</mask>
<g mask="url(#mask1_404_9098)">
<mask id="mask2_404_9098" style="mask-type:luminance" maskUnits="userSpaceOnUse" x="1" y="1" width="738" height="404">
<path d="M1 1H739V405H1V1Z" fill="white"/>
</mask>
<g mask="url(#mask2_404_9098)">
<path d="M568.134 180.986C547.574 141.173 534.254 106.019 526.628 83.2832C522.898 104.058 513.708 151.602 500.095 199.254C511.293 218.706 522.302 234.12 531.907 247.637C545.048 227.916 558.512 204.757 568.134 180.986Z" fill="url(#paint0_linear_404_9098)"/>
<path d="M523.038 260.533C513.339 246.9 504.02 232.249 494.882 216.712C488.089 238.547 480.379 259.697 471.842 277.555C475.904 283.526 482.145 292.024 490.69 301.954C495.715 296.176 508.552 280.979 523.038 260.533Z" fill="url(#paint1_linear_404_9098)"/>
<path d="M350.276 276.57C363.47 294.719 377.853 313.461 392.264 330.432C403.475 323.35 413.315 316.313 421.941 309.522C414.52 292.86 404.326 267.747 394.106 241.843C384.359 250.359 369.635 262.515 350.276 276.57Z" fill="url(#paint2_linear_404_9098)"/>
<path d="M388.355 227.255C375.968 195.643 364.324 165.016 358.352 149.237C339.993 168.169 320.725 186.199 300.615 203.265C309.44 217.319 324.294 240.08 341.987 265.009C362.882 249.561 378.429 236.273 388.355 227.255Z" fill="url(#paint3_linear_404_9098)"/>
<path d="M250.71 337.722C273.202 348.362 297.077 358.72 319.979 366.953C328.922 363.364 337.392 359.69 345.406 355.926C325.351 347.045 302.558 334.882 280.073 321.797C270.399 327.312 260.609 332.621 250.71 337.722Z" fill="url(#paint4_linear_404_9098)"/>
<path d="M266.75 313.929C243.589 300.025 221.416 285.648 203.636 273.46C191.747 280.717 179.677 287.676 167.438 294.33C183.913 303.726 208.353 317.063 235.923 330.591C246.322 325.267 256.6 319.712 266.75 313.929Z" fill="url(#paint5_linear_404_9098)"/>
<path d="M497.954 310.098C504.743 317.469 511.862 324.529 519.29 331.257C562.254 312.735 599.923 284.165 620.878 266.586C608.606 249.837 597.627 232.991 587.835 216.512C552.679 261.382 507.513 301.73 497.954 310.098Z" fill="url(#paint6_linear_404_9098)"/>
<path d="M32.7023 353.15C20.8272 357.145 10.729 360.21 2.79225 362.468C2.73115 362.493 1.59535 362.748 1.38 363.23C1.20572 363.593 1.02843 364.339 2.46674 364.962C30.9746 374.264 61.2562 382.083 89.2663 388.327C100.042 385.272 110.753 381.994 121.392 378.496C89.5888 370.352 58.3405 361.393 32.7023 353.15Z" fill="url(#paint7_linear_404_9098)"/>
<path d="M142.279 383.696C132.294 387.066 122.24 390.23 112.124 393.185C138.819 398.597 162.094 402.388 177.781 404.452C189.048 402.73 200.277 400.758 211.457 398.537C190.24 394.717 166.432 389.544 142.279 383.696Z" fill="url(#paint8_linear_404_9098)"/>
<path d="M218.433 339.3C190.589 326.91 164.513 314.151 146.902 305.133C136.405 310.469 125.799 315.589 115.091 320.489C137.554 330.457 164.188 341.466 191.285 351.763C200.41 347.776 209.461 343.621 218.433 339.3Z" fill="url(#paint9_linear_404_9098)"/>
<path d="M208.153 358.07C233.071 367.204 257.675 375.438 279.096 381.447C287.831 378.719 296.5 375.784 305.094 372.642C284.105 366.543 258.851 356.762 233.987 346.091C225.45 350.242 216.837 354.236 208.153 358.07Z" fill="url(#paint10_linear_404_9098)"/>
<path d="M173.249 359.385C141.514 348.862 111.63 338.244 91.5888 330.829C79.9131 335.751 68.8923 340.122 58.6509 343.944C80.0072 351.347 110.834 361.469 143.406 370.872C153.429 367.241 163.379 363.412 173.249 359.385Z" fill="url(#paint11_linear_404_9098)"/>
<path d="M162.979 376.383C188.487 383.333 214.098 389.452 236.219 393.151C244.947 391.086 253.632 388.846 262.27 386.434C240.8 380.784 215.949 373.251 191.282 365.287C181.924 369.176 172.487 372.876 162.979 376.383Z" fill="url(#paint12_linear_404_9098)"/>
<path d="M586.208 378.861C611.338 376.937 657.71 371.49 704.725 356.211C695.967 348.918 687.465 341.323 679.235 333.441C655.599 342.336 611.146 358.494 562.343 364.545C570.105 369.631 578.066 374.406 586.208 378.861Z" fill="url(#paint13_linear_404_9098)"/>
<path d="M551.838 357.385C572.376 353.289 618.717 340.937 664.615 318.838C655.045 308.882 645.898 298.529 637.199 287.805C614.925 301.367 570.596 326.549 528.727 339.51C536.177 345.788 543.887 351.752 551.838 357.385Z" fill="url(#paint14_linear_404_9098)"/>
<path d="M737.399 381.104C730.384 376.214 723.501 371.138 716.758 365.88C703.228 370.381 658.845 383.687 600.053 386.044C608.906 390.391 617.936 394.371 627.119 397.972C652.36 399.153 690.872 397.372 737.389 383.755C738.23 383.436 738.501 383.082 738.521 382.621C738.571 381.821 737.399 381.104 737.399 381.104Z" fill="url(#paint15_linear_404_9098)"/>
<path d="M274.319 224.621C258.489 236.918 242.593 248.316 226.756 258.774C254.147 282.155 310.569 326.576 355.28 351.17C364.67 346.512 373.883 341.506 382.899 336.163C355.199 310.931 297.127 249.095 274.319 224.621Z" fill="url(#paint16_linear_404_9098)"/>
<path d="M389.761 115.018C402.582 174.706 422.186 268.65 429.354 303.502C445.189 290.25 456.208 278.299 463.405 269.423C486.516 142.096 480.309 11.9471 480.309 11.9471C480.273 10.8561 480.195 2.75411 477.697 1.79811C474.47 0.548106 472.477 4.14411 472.477 4.14411C472.477 4.14411 423.584 78.2061 389.761 115.018Z" fill="url(#paint17_linear_404_9098)"/>
</g>
</g>
</g>
</g>
<defs>
<linearGradient id="paint0_linear_404_9098" x1="554.484" y1="115.14" x2="478.422" y2="298.113" gradientUnits="userSpaceOnUse">
<stop stop-color="#44C8F5"/>
<stop offset="0.0288" stop-color="#36C4F3"/>
<stop offset="0.2534" stop-color="#00AFEA"/>
<stop offset="0.423" stop-color="#00A4E5"/>
<stop offset="0.5169" stop-color="#00A1E4"/>
<stop offset="1" stop-color="#0066B3"/>
</linearGradient>
<linearGradient id="paint1_linear_404_9098" x1="559.577" y1="117.25" x2="483.516" y2="300.242" gradientUnits="userSpaceOnUse">
<stop stop-color="#44C8F5"/>
<stop offset="0.0288" stop-color="#36C4F3"/>
<stop offset="0.2534" stop-color="#00AFEA"/>
<stop offset="0.423" stop-color="#00A4E5"/>
<stop offset="0.5169" stop-color="#00A1E4"/>
<stop offset="1" stop-color="#0066B3"/>
</linearGradient>
<linearGradient id="paint2_linear_404_9098" x1="315.693" y1="155.014" x2="405.073" y2="320.395" gradientUnits="userSpaceOnUse">
<stop stop-color="#44C8F5"/>
<stop offset="0.0288" stop-color="#36C4F3"/>
<stop offset="0.2534" stop-color="#00AFEA"/>
<stop offset="0.423" stop-color="#00A4E5"/>
<stop offset="0.5169" stop-color="#00A1E4"/>
<stop offset="1" stop-color="#0066B3"/>
</linearGradient>
<linearGradient id="paint3_linear_404_9098" x1="317.447" y1="154.07" x2="406.826" y2="319.452" gradientUnits="userSpaceOnUse">
<stop stop-color="#44C8F5"/>
<stop offset="0.0288" stop-color="#36C4F3"/>
<stop offset="0.2534" stop-color="#00AFEA"/>
<stop offset="0.423" stop-color="#00A4E5"/>
<stop offset="0.5169" stop-color="#00A1E4"/>
<stop offset="1" stop-color="#0066B3"/>
</linearGradient>
<linearGradient id="paint4_linear_404_9098" x1="150.703" y1="257.746" x2="333.993" y2="368.909" gradientUnits="userSpaceOnUse">
<stop stop-color="#44C8F5"/>
<stop offset="0.0288" stop-color="#36C4F3"/>
<stop offset="0.2534" stop-color="#00AFEA"/>
<stop offset="0.423" stop-color="#00A4E5"/>
<stop offset="0.5169" stop-color="#00A1E4"/>
<stop offset="1" stop-color="#0066B3"/>
</linearGradient>
<linearGradient id="paint5_linear_404_9098" x1="148.434" y1="261.471" x2="331.736" y2="372.642" gradientUnits="userSpaceOnUse">
<stop stop-color="#44C8F5"/>
<stop offset="0.0288" stop-color="#36C4F3"/>
<stop offset="0.2534" stop-color="#00AFEA"/>
<stop offset="0.423" stop-color="#00A4E5"/>
<stop offset="0.5169" stop-color="#00A1E4"/>
<stop offset="1" stop-color="#0066B3"/>
</linearGradient>
<linearGradient id="paint6_linear_404_9098" x1="635.369" y1="219.105" x2="496.555" y2="322.383" gradientUnits="userSpaceOnUse">
<stop stop-color="#44C8F5"/>
<stop offset="0.0288" stop-color="#36C4F3"/>
<stop offset="0.2534" stop-color="#00AFEA"/>
<stop offset="0.423" stop-color="#00A4E5"/>
<stop offset="0.5169" stop-color="#00A1E4"/>
<stop offset="1" stop-color="#0066B3"/>
</linearGradient>
<linearGradient id="paint7_linear_404_9098" x1="-24.5116" y1="350.555" x2="212.085" y2="406.694" gradientUnits="userSpaceOnUse">
<stop stop-color="#44C8F5"/>
<stop offset="0.0288" stop-color="#36C4F3"/>
<stop offset="0.2534" stop-color="#00AFEA"/>
<stop offset="0.423" stop-color="#00A4E5"/>
<stop offset="0.5169" stop-color="#00A1E4"/>
<stop offset="1" stop-color="#0066B3"/>
</linearGradient>
<linearGradient id="paint8_linear_404_9098" x1="-24.7871" y1="351.729" x2="211.81" y2="407.867" gradientUnits="userSpaceOnUse">
<stop stop-color="#44C8F5"/>
<stop offset="0.0288" stop-color="#36C4F3"/>
<stop offset="0.2534" stop-color="#00AFEA"/>
<stop offset="0.423" stop-color="#00A4E5"/>
<stop offset="0.5169" stop-color="#00A1E4"/>
<stop offset="1" stop-color="#0066B3"/>
</linearGradient>
<linearGradient id="paint9_linear_404_9098" x1="87.6477" y1="294.383" x2="294.448" y2="382.902" gradientUnits="userSpaceOnUse">
<stop stop-color="#44C8F5"/>
<stop offset="0.0288" stop-color="#36C4F3"/>
<stop offset="0.2534" stop-color="#00AFEA"/>
<stop offset="0.423" stop-color="#00A4E5"/>
<stop offset="0.5169" stop-color="#00A1E4"/>
<stop offset="1" stop-color="#0066B3"/>
</linearGradient>
<linearGradient id="paint10_linear_404_9098" x1="88.0603" y1="293.427" x2="294.856" y2="381.945" gradientUnits="userSpaceOnUse">
<stop stop-color="#44C8F5"/>
<stop offset="0.0288" stop-color="#36C4F3"/>
<stop offset="0.2534" stop-color="#00AFEA"/>
<stop offset="0.423" stop-color="#00A4E5"/>
<stop offset="0.5169" stop-color="#00A1E4"/>
<stop offset="1" stop-color="#0066B3"/>
</linearGradient>
<linearGradient id="paint11_linear_404_9098" x1="30.2512" y1="321.763" x2="253.169" y2="399.639" gradientUnits="userSpaceOnUse">
<stop stop-color="#44C8F5"/>
<stop offset="0.0288" stop-color="#36C4F3"/>
<stop offset="0.2534" stop-color="#00AFEA"/>
<stop offset="0.423" stop-color="#00A4E5"/>
<stop offset="0.5169" stop-color="#00A1E4"/>
<stop offset="1" stop-color="#0066B3"/>
</linearGradient>
<linearGradient id="paint12_linear_404_9098" x1="31.4611" y1="318.321" x2="254.379" y2="396.197" gradientUnits="userSpaceOnUse">
<stop stop-color="#44C8F5"/>
<stop offset="0.0288" stop-color="#36C4F3"/>
<stop offset="0.2534" stop-color="#00AFEA"/>
<stop offset="0.423" stop-color="#00A4E5"/>
<stop offset="0.5169" stop-color="#00A1E4"/>
<stop offset="1" stop-color="#0066B3"/>
</linearGradient>
<linearGradient id="paint13_linear_404_9098" x1="724.408" y1="340.432" x2="542.738" y2="375.208" gradientUnits="userSpaceOnUse">
<stop stop-color="#44C8F5"/>
<stop offset="0.0288" stop-color="#36C4F3"/>
<stop offset="0.2534" stop-color="#00AFEA"/>
<stop offset="0.423" stop-color="#00A4E5"/>
<stop offset="0.5169" stop-color="#00A1E4"/>
<stop offset="1" stop-color="#0066B3"/>
</linearGradient>
<linearGradient id="paint14_linear_404_9098" x1="677.769" y1="297.613" x2="520.581" y2="347.007" gradientUnits="userSpaceOnUse">
<stop stop-color="#44C8F5"/>
<stop offset="0.0288" stop-color="#36C4F3"/>
<stop offset="0.2534" stop-color="#00AFEA"/>
<stop offset="0.423" stop-color="#00A4E5"/>
<stop offset="0.5169" stop-color="#00A1E4"/>
<stop offset="1" stop-color="#0066B3"/>
</linearGradient>
<linearGradient id="paint15_linear_404_9098" x1="749.138" y1="380.302" x2="575.423" y2="384.841" gradientUnits="userSpaceOnUse">
<stop stop-color="#44C8F5"/>
<stop offset="0.0288" stop-color="#36C4F3"/>
<stop offset="0.2534" stop-color="#00AFEA"/>
<stop offset="0.423" stop-color="#00A4E5"/>
<stop offset="0.5169" stop-color="#00A1E4"/>
<stop offset="1" stop-color="#0066B3"/>
</linearGradient>
<linearGradient id="paint16_linear_404_9098" x1="230.18" y1="223.914" x2="368.589" y2="345.314" gradientUnits="userSpaceOnUse">
<stop stop-color="#44C8F5"/>
<stop offset="0.0288" stop-color="#36C4F3"/>
<stop offset="0.2534" stop-color="#00AFEA"/>
<stop offset="0.423" stop-color="#00A4E5"/>
<stop offset="0.5169" stop-color="#00A1E4"/>
<stop offset="1" stop-color="#0066B3"/>
</linearGradient>
<linearGradient id="paint17_linear_404_9098" x1="432.752" y1="-2.57789" x2="443.411" y2="307.046" gradientUnits="userSpaceOnUse">
<stop stop-color="#44C8F5"/>
<stop offset="0.0288" stop-color="#36C4F3"/>
<stop offset="0.2534" stop-color="#00AFEA"/>
<stop offset="0.423" stop-color="#00A4E5"/>
<stop offset="0.5169" stop-color="#00A1E4"/>
<stop offset="1" stop-color="#0066B3"/>
</linearGradient>
<clipPath id="clip0_404_9098">
<rect width="740" height="406" fill="white"/>
</clipPath>
</defs>
</svg>
