<svg width="98" height="114" viewBox="0 0 98 114" fill="none" xmlns="http://www.w3.org/2000/svg">
<path d="M41.2597 21.1852C41.3971 19.5361 42.7757 18.2676 44.4305 18.2676H53.5685C55.2234 18.2676 56.6019 19.5361 56.7394 21.1852L58.708 44.8083C58.8626 46.6634 57.3986 48.2544 55.5371 48.2544H42.4619C40.6004 48.2544 39.1365 46.6634 39.2911 44.8083L41.2597 21.1852Z" fill="#FFF3F5"/>
<path d="M41.2597 21.1852C41.3971 19.5361 42.7757 18.2676 44.4305 18.2676H53.5685C55.2234 18.2676 56.6019 19.5361 56.7394 21.1852L58.708 44.8083C58.8626 46.6634 57.3986 48.2544 55.5371 48.2544H42.4619C40.6004 48.2544 39.1365 46.6634 39.2911 44.8083L41.2597 21.1852Z" fill="url(#paint0_linear_664_7659)" fill-opacity="0.2"/>
<path d="M24.0107 55.7488C24.0107 41.9477 35.1987 30.7598 48.9998 30.7598C62.8008 30.7598 73.9888 41.9477 73.9888 55.7488V101.862C73.9888 105.377 71.1397 108.226 67.6251 108.226H30.3744C26.8599 108.226 24.0107 105.377 24.0107 101.862V55.7488Z" fill="#FFF3F5"/>
<path d="M24.0107 55.7488C24.0107 41.9477 35.1987 30.7598 48.9998 30.7598C62.8008 30.7598 73.9888 41.9477 73.9888 55.7488V101.862C73.9888 105.377 71.1397 108.226 67.6251 108.226H30.3744C26.8599 108.226 24.0107 105.377 24.0107 101.862V55.7488Z" fill="url(#paint1_linear_664_7659)" fill-opacity="0.2"/>
<path d="M29.0088 21.6807C29.0088 12.8943 36.1316 5.77148 44.918 5.77148H53.082C61.8685 5.77148 68.9913 12.8943 68.9913 21.6807V22.5809C68.9913 24.3382 67.5667 25.7627 65.8094 25.7627H32.1906C30.4334 25.7627 29.0088 24.3382 29.0088 22.5809V21.6807Z" fill="url(#paint2_linear_664_7659)"/>
<rect x="24.0107" y="58.248" width="49.9781" height="42.4814" fill="#FF8CA3"/>
<rect x="31.5078" y="53.25" width="7.49671" height="44.9803" rx="3.74836" fill="white"/>
<rect x="31.5078" y="40.7559" width="7.49671" height="7.49671" rx="3.74836" fill="white"/>
<defs>
<linearGradient id="paint0_linear_664_7659" x1="48.9995" y1="18.2676" x2="48.9995" y2="48.2544" gradientUnits="userSpaceOnUse">
<stop stop-color="white" stop-opacity="0.2"/>
<stop offset="1" stop-color="#47CFF6"/>
</linearGradient>
<linearGradient id="paint1_linear_664_7659" x1="48.9998" y1="30.7598" x2="48.9998" y2="108.226" gradientUnits="userSpaceOnUse">
<stop stop-color="white" stop-opacity="0.2"/>
<stop offset="1" stop-color="#47CFF6"/>
</linearGradient>
<linearGradient id="paint2_linear_664_7659" x1="29.0088" y1="10.3007" x2="95.1544" y2="20.8488" gradientUnits="userSpaceOnUse">
<stop offset="0.151261" stop-color="#BDEDFC"/>
<stop offset="0.774278" stop-color="#FFC8D3"/>
</linearGradient>
</defs>
</svg>
