<svg width="278" height="202" viewBox="0 0 278 202" fill="none" xmlns="http://www.w3.org/2000/svg">
<path d="M30.3999 200.5H122.4V150.5C122.4 150.5 72.1999 163 49.9999 163L30.3999 200.5ZM140.2 145.8V200.8L232.9 200L204.5 142C204.5 142 248.1 123.2 264.7 101.1C264.7 101.1 312 53.1998 210.4 49.7998C210.4 49.7998 290.9 51.4998 240.3 99.3998C240.3 99.5998 200 131.7 140.2 145.8Z" fill="#004EA2"/>
<path d="M21.6001 98.7C21.6001 98.7 -20.0999 134.6 68.9001 125.4L132 2L185.6 108.3C185.6 108.3 153.1 120.8 138.3 125.8V113.7H151.2V91.2H146.8V80H142.7V72H135.3V27H132.7V14.1H131.2V27H128.2V72H120.4V79.5H117.1V90.8H112.3V113.7H125.2V129.1C125.2 129.1 59.1001 150.4 15.5001 137.4C15.7001 137.5 -18.6999 128.7 21.6001 98.7Z" fill="#00A040"/>
<path d="M193.4 50C193.4 57.2 188.2 63 181.9 63C175.5 63 170.4 57.2 170.4 50C170.4 42.8 175.6 37 181.9 37C188.2 37 193.4 42.8 193.4 50Z" fill="#E60020"/>
</svg>
