<svg width="758" height="693" viewBox="0 0 758 693" fill="none" xmlns="http://www.w3.org/2000/svg">
<g clip-path="url(#clip0_198_1637)">
<mask id="mask0_198_1637" style="mask-type:luminance" maskUnits="userSpaceOnUse" x="0" y="0" width="758" height="693">
<path d="M0 0H758V693H0V0Z" fill="white"/>
</mask>
<g mask="url(#mask0_198_1637)">
<path fill-rule="evenodd" clip-rule="evenodd" d="M318 176H334V218H318V176ZM344 176H360V218H344V176ZM291 176H308V218H291V176ZM470.776 370.997C470.776 319.164 429.425 277 378.561 277C327.714 277 286.347 319.164 286.347 370.997V575.199H190.433V449.864C118.005 524.128 85.1181 599.091 112.701 646.827C156.164 722.091 333.383 701.152 508.538 600.059C522.255 592.146 535.747 583.85 549 575.183H470.776V370.997ZM451.466 575.215H435.713V370.997C435.713 338.865 410.083 312.735 378.561 312.735C347.056 312.735 321.426 338.865 321.426 370.997V575.199H305.673V370.997C305.673 330.023 338.385 296.685 378.577 296.685C418.769 296.685 451.482 330.023 451.482 370.997V575.215H451.466ZM371 176H387V218H371V176ZM450 176H466V218H450V176ZM397 176H413V218H397V176Z" fill="#008B4F"/>
<path fill-rule="evenodd" clip-rule="evenodd" d="M747.303 281.349C722.461 238.327 653.909 226.734 567.028 243.568C616.631 192.796 647.731 141.675 653.719 99.1138L582.371 108.865C582.135 107.123 581.833 105.391 581.466 103.672L654.735 87.6478C655.196 73.6248 652.607 60.7298 646.746 49.2638L575.335 86.9018C574.506 85.3508 573.621 83.8304 572.682 82.3438L640.599 39.3698C633.007 29.2058 622.603 21.1218 609.865 15.0238L561.198 68.6698C559.896 67.4863 558.544 66.3577 557.148 65.2868L599.35 10.6248C588.692 6.78182 576.732 4.09781 563.644 2.55681L541.678 56.3618C540.051 55.6923 538.398 55.0885 536.722 54.5518L553.59 1.61981C543.33 0.889815 532.45 0.809814 521.062 1.34981L519.124 51.4868C518.282 51.4708 517.424 51.4228 516.567 51.4228C515.661 51.4228 514.772 51.4708 513.851 51.5028L511.833 1.93782C501.763 2.71582 491.328 3.93882 480.543 5.63782L496.252 54.5998C494.582 55.1365 492.934 55.7404 491.312 56.4098L471.109 7.24182C459.911 9.25882 448.38 11.7518 436.578 14.7378L475.842 65.3828C474.446 66.4536 473.094 67.5823 471.792 68.7658L425.27 17.7078C410.562 21.7418 395.473 26.5058 380.145 31.9528L460.324 82.4548C459.384 83.938 458.504 85.4586 457.687 87.0128L364.008 37.8928C340.675 46.8328 316.819 57.3628 292.803 69.4328L451.588 103.799C451.227 105.518 450.931 107.25 450.699 108.992L265.103 84.0108C259.764 86.9509 254.454 89.942 249.172 92.9838C247.711 93.8258 246.281 94.6828 244.82 95.5248C255.557 97.3198 263.753 106.626 263.753 117.87C263.753 130.4 253.588 140.564 241.072 140.564C228.54 140.564 218.374 130.4 218.374 117.87C218.374 115.456 218.756 113.137 219.454 110.946C62.131 210.456 -30.262 341.491 10.701 412.415C35.511 455.389 103.92 467.015 190.642 450.26V243.632H566.98V564C706.784 467.348 785.724 347.891 747.303 281.349ZM516.551 95.1918C529.083 95.1918 539.248 105.355 539.248 117.886C539.248 130.416 529.098 140.58 516.551 140.58C504.019 140.58 493.854 130.416 493.854 117.886C493.854 105.34 504.019 95.1918 516.551 95.1918ZM566.98 164.766V229.656H190.642V144.312H291.501V164.766H466.137V144.312H566.996V164.766H566.98Z" fill="#008B4F"/>
<path fill-rule="evenodd" clip-rule="evenodd" d="M423 176H440V218H423V176ZM191 450.19V451L192 450C191.667 450.095 191.333 450.095 191 450.19Z" fill="#008B4F"/>
</g>
</g>
<defs>
<clipPath id="clip0_198_1637">
<rect width="758" height="693" fill="white"/>
</clipPath>
</defs>
</svg>
