<svg width="400" height="400" viewBox="0 0 400 400" fill="none" xmlns="http://www.w3.org/2000/svg">
<path d="M286.93 286.93C385.77 188.09 426.97 69.0499 378.96 21.0399C345.26 -12.6601 276.58 -2.4001 204.45 40.8799C203.096 41.6881 201.975 42.8332 201.195 44.2037C200.415 45.5741 200.003 47.1231 200 48.6999V200H243.37C245.88 200 247.92 202.04 247.92 204.55V351.87C247.92 354.38 249.96 356.42 252.47 356.42H351.87C354.38 356.42 356.42 354.38 356.42 351.87V313.04C356.42 310.53 354.38 308.49 351.87 308.49H264.01C271.74 301.66 279.39 294.46 286.93 286.93ZM200 200V351.29C200 354.5 198.3 357.46 195.55 359.11C123.42 402.4 54.7501 412.65 21.0501 378.95C-26.9599 330.95 14.2501 211.9 113.08 113.06C120.61 105.53 128.26 98.3299 135.99 91.4899H48.1201C45.6101 91.4899 43.5701 89.4499 43.5701 86.9399V48.1299C43.5701 45.6199 45.6101 43.5799 48.1201 43.5799H147.52C150.03 43.5799 152.07 45.6199 152.07 48.1299V195.45C152.07 197.96 154.11 200 156.62 200H200Z" fill="#16418F"/>
</svg>
