<svg width="758" height="676" viewBox="0 0 758 676" fill="none" xmlns="http://www.w3.org/2000/svg">
<g clip-path="url(#clip0_198_1563)">
<mask id="mask0_198_1563" style="mask-type:luminance" maskUnits="userSpaceOnUse" x="0" y="0" width="758" height="676">
<path d="M0 0H758V676H0V0Z" fill="white"/>
</mask>
<g mask="url(#mask0_198_1563)">
<path fill-rule="evenodd" clip-rule="evenodd" d="M757 316.776C744.869 140.565 580.281 1 379 1C177.645 1 12.981 140.677 1 317L149.152 178.818C149.152 178.818 178.169 143.217 207.897 177.324L246.61 217.407L344.779 117.964C344.779 117.964 376.005 74.929 419.174 117.964L508.432 212.962L548.643 174.372C548.643 174.372 582.827 137.24 620.042 174.372L757 316.776Z" fill="#004EA2"/>
<path fill-rule="evenodd" clip-rule="evenodd" d="M753 389.08L598.973 225.388C581.135 198.654 564.794 223.893 564.794 223.893L463.754 324.92C445.917 344.213 429.576 330.865 429.576 330.865C408.037 309.328 429.576 292.241 429.576 292.241L469.7 252.122L398.352 168.93C382.758 153.338 368.66 168.93 368.66 168.93L224.505 313.03C193.318 344.213 178.473 324.92 178.473 324.92C156.933 303.383 182.922 283.305 182.922 283.305L208.164 256.571L190.327 232.791C178.435 220.901 168.04 232.791 168.04 232.791L5 388.744C27.997 525.217 142.91 634.881 291.778 666.176C296.975 589.864 276.857 533.667 263.246 505.288C248.064 508.204 229.74 501.511 216.39 486.518C198.142 465.954 196.272 437.837 212.202 423.629C228.17 409.458 255.879 414.618 274.165 435.182C288.674 451.559 292.675 472.572 285.682 487.677C301.164 517.739 326.18 581.638 319.337 670.925C333.173 672.906 347.233 674.252 361.556 674.813V471.002C348.056 463.187 338.446 443.333 338.446 419.964C338.446 389.791 354.451 365.338 374.195 365.338C393.939 365.338 409.906 389.791 409.906 419.964C409.906 443.333 400.296 463.187 386.834 471.002V675C398.649 674.776 410.45 674.077 422.209 672.906C414.805 582.535 440.121 517.888 455.715 487.64C448.759 472.535 452.723 451.484 467.27 435.145C485.518 414.58 513.265 409.421 529.195 423.591C545.162 437.762 543.292 465.916 525.006 486.481C511.694 501.474 493.333 508.167 478.189 505.251C464.39 534.003 443.861 591.359 449.881 669.279C606.526 642.882 729.03 530.376 753 389.08Z" fill="#009944"/>
</g>
</g>
<defs>
<clipPath id="clip0_198_1563">
<rect width="758" height="676" fill="white"/>
</clipPath>
</defs>
</svg>
