<svg width="758" height="480" viewBox="0 0 758 480" fill="none" xmlns="http://www.w3.org/2000/svg">
<g clip-path="url(#clip0_198_1546)">
<mask id="mask0_198_1546" style="mask-type:luminance" maskUnits="userSpaceOnUse" x="0" y="0" width="758" height="480">
<path d="M0 0H758V480H0V0Z" fill="white"/>
</mask>
<g mask="url(#mask0_198_1546)">
<path fill-rule="evenodd" clip-rule="evenodd" d="M59.308 271.968C59.308 271.968 44.338 263.121 39.626 262.369C34.913 261.522 33.342 255.969 31.032 254.275C28.629 252.675 1 235.076 1 230.182C1 225.382 14.399 226.229 21.514 223.782C28.629 221.335 34.913 218.135 42.767 218.135C46.648 218.135 49.051 216.63 53.856 215.689C58.753 214.748 66.053 214.465 67.255 213.242C69.657 210.795 65.684 227.641 63.374 231.688C60.879 235.829 60.139 247.122 60.139 251.922C60.139 256.722 63.189 272.815 59.308 271.968ZM72.873 202.835C72.873 202.835 61.269 189.717 56.998 187.469C52.728 185.22 52.914 179.41 51.242 177.162C49.479 174.913 28.59 149.426 30.076 144.929C31.561 140.337 44.094 145.397 51.614 145.304C59.134 145.304 66.096 144.179 73.616 146.709C77.33 147.927 80.022 147.271 84.85 147.927C89.77 148.677 96.918 150.644 98.404 149.895C101.375 148.302 92.462 163.013 88.934 166.105C85.406 169.103 81.229 179.504 79.744 184.095C78.351 188.593 76.4 204.803 72.873 202.835ZM105.657 141.542C105.657 141.542 99.539 125.127 96.387 121.468C93.236 117.81 95.553 112.464 94.719 109.743C93.885 106.929 83.504 75.6001 86.562 71.8481C89.622 68.1901 99.446 77.3821 106.491 80.1031C113.442 82.8231 120.394 84.4171 126.512 89.4831C129.571 92.0151 132.259 92.2971 136.615 94.7351C140.972 97.1741 146.811 101.677 148.479 101.489C151.816 101.208 138.191 111.619 133.834 113.12C129.478 114.715 121.877 122.875 118.911 126.534C115.76 130.379 108.159 144.731 105.657 141.542ZM162.754 92.2011C162.754 92.2011 162.294 74.7501 160.454 70.2711C158.705 65.7921 162.57 61.4991 162.662 58.6061C162.754 55.7131 163.122 22.8651 167.079 20.3451C171.129 17.8261 177.387 29.7701 183.092 34.6231C188.798 39.4751 194.779 43.2081 198.829 50.0211C200.945 53.3801 203.338 54.5931 206.559 58.2331C209.872 61.9661 213.921 68.1251 215.578 68.4981C218.798 69.2441 202.694 74.6571 198.185 74.6571C193.583 74.6571 183.828 79.8831 179.871 82.3091C175.822 85.0161 164.135 96.0271 162.754 92.2011ZM231 67.7061C231 67.7061 236.161 50.9741 235.885 46.1131C235.609 41.2521 240.678 38.5411 241.691 35.8301C242.705 33.1191 253.489 2.08407 258.097 1.05607C262.706 0.0280708 264.826 13.3951 268.697 19.8451C272.568 26.2951 276.992 31.9041 278.743 39.6631C279.573 43.4951 281.6 45.4581 283.444 50.0391C285.379 54.6191 287.315 61.8171 288.697 62.7521C291.462 64.5281 274.503 64.3411 270.171 62.9391C265.84 61.5371 254.964 63.1261 250.263 64.2481C245.747 65.1821 231.092 71.7261 231 67.7061ZM305.085 64.0551C305.085 64.0551 315.806 50.3701 317.285 45.8081C318.764 41.2471 324.402 40.5021 326.343 38.3611C328.192 36.2201 349.451 11.2711 354.073 12.0161C358.787 12.7611 356.014 25.9801 357.308 33.3341C358.602 40.7821 360.82 47.4841 359.711 55.3041C359.157 59.2141 360.266 61.7271 360.451 66.6611C360.635 71.5951 359.804 79.0421 360.82 80.3451C362.854 83.0451 347.048 76.7151 343.443 73.7361C339.931 70.8501 329.117 68.4301 324.402 67.6851C319.781 67.0341 303.698 67.7781 305.085 64.0551Z" fill="#E60012"/>
<path fill-rule="evenodd" clip-rule="evenodd" d="M559.478 407.01C530.657 429.166 518.756 438.382 464.74 440.337C418.905 442.013 392.873 421.905 372.884 402.356C384.691 404.776 397.614 405.987 412.025 405.428C475.525 403.101 494.677 390.44 528.798 364.188L505.369 333.654C476.64 355.81 464.647 365.026 410.63 366.981C357.729 368.936 331.232 341.846 309.942 320.063L304.735 314.756C282.515 292.507 248.58 267 182.942 267C122.418 267 80.766 302.654 79 304.237L104.195 333.281C104.474 333.002 137.2 305.447 182.942 305.447C234.077 305.447 258.622 323.042 277.495 341.939L280.191 344.639C267.547 341.939 253.229 340.45 237.052 340.45C176.435 340.45 134.876 376.104 133.11 377.686L158.491 406.824C158.77 406.545 191.496 378.99 237.238 378.99C288.279 378.99 312.824 396.491 331.697 415.482L336.718 420.509C360.518 444.713 396.406 481.391 466.227 478.877C529.727 476.55 548.879 463.89 583 437.638L559.478 407.01Z" fill="#004EA2"/>
<path fill-rule="evenodd" clip-rule="evenodd" d="M233 267H757C757 267 639.545 132 488.413 132C337.28 132 233 267 233 267Z" fill="#009944"/>
</g>
</g>
<defs>
<clipPath id="clip0_198_1546">
<rect width="758" height="480" fill="white"/>
</clipPath>
</defs>
</svg>
