<svg width="758" height="552" viewBox="0 0 758 552" fill="none" xmlns="http://www.w3.org/2000/svg">
<g clip-path="url(#clip0_198_1582)">
<mask id="mask0_198_1582" style="mask-type:luminance" maskUnits="userSpaceOnUse" x="0" y="0" width="758" height="552">
<path d="M0 0H758V552H0V0Z" fill="white"/>
</mask>
<g mask="url(#mask0_198_1582)">
<path fill-rule="evenodd" clip-rule="evenodd" d="M447.591 340.565C424.752 340.565 410.836 358.922 410.836 395.637V510.041C410.836 533.233 413.292 541.511 423.688 552H337C347.805 541.511 351.898 530.529 351.898 510.041V342.286C351.898 322.618 348.624 310.817 339.456 299.016H410.754V333.517C430.646 307.702 457.578 295 485 295V374.083C480.252 352.776 463.635 340.565 447.591 340.565Z" fill="#F69320"/>
<path fill-rule="evenodd" clip-rule="evenodd" d="M619.515 468.934C578.245 468.934 544.017 409.143 544.017 315.642C544.017 205.245 573.004 154.148 616.649 154.148C665.616 154.148 687.643 221.075 691.328 312.607C691.328 413.736 663.569 468.934 619.515 468.934ZM618.614 127C539.431 127 479 205.656 479 315.56C479 424.89 538.203 496 616.977 496C690.018 496 757 416.279 757 302.847C757 197.044 703.939 127 618.614 127Z" fill="#F69320"/>
<path fill-rule="evenodd" clip-rule="evenodd" d="M262 298.248C251.823 311.009 248.129 323.688 248.129 348.147V433.303C248.129 451.627 249.771 456.617 252.644 467.987C252.644 467.987 201.1 494 144.632 494C58.699 494 1 419.56 1 323.198C1 224.872 47.619 129 142.58 129C178.201 129 201.429 139.552 218.664 140.207C229.991 140.616 241.974 136.607 241.974 136.607V227.817C241.974 227.817 239.84 224.136 237.624 217.264C231.222 197.877 211.36 156.894 159.898 156.894C109.996 156.894 69.779 208.43 69.779 307.819C69.779 413.834 105.4 463.815 150.788 463.815C172.456 463.815 184.357 453.59 184.357 453.59V348.065C184.357 321.071 180.663 309.373 169.583 298.166H262V298.248Z" fill="#EB2127"/>
<path fill-rule="evenodd" clip-rule="evenodd" d="M459 253.336H386.708V222.716C365.538 248.574 334.356 259 301.123 259C251.233 259 230.883 230.514 230.883 171.901V43.755C230.883 19.62 226.78 11.329 218 0H289.882V162.46C289.882 209.745 303.093 226.574 333.782 226.574C360.204 226.574 387.119 211.715 387.119 160.079V43.755C387.119 24.053 383.836 12.642 374.236 0H446.117V211.305C446.117 234.126 449.482 242.828 459 253.336Z" fill="#EB2127"/>
</g>
</g>
<defs>
<clipPath id="clip0_198_1582">
<rect width="758" height="552" fill="white"/>
</clipPath>
</defs>
</svg>
