<svg width="98" height="114" viewBox="0 0 98 114" fill="none" xmlns="http://www.w3.org/2000/svg">
<path d="M27.0709 58.9435C27.7871 61.6209 26.8663 64.4695 24.7183 66.221L17.4883 72.1168C13.4916 75.3759 7.47373 73.7148 5.71475 68.867C4.53801 65.6238 5.72894 61.9964 8.59899 60.0819L16.3599 54.9049C20.3713 52.2291 25.8248 54.2853 27.0709 58.9435Z" fill="url(#paint0_linear_664_7628)"/>
<rect width="52.6216" height="33.7796" transform="matrix(0.998049 0.0624274 -0.0502725 0.998736 27.8535 51.3535)" fill="#47CFF6"/>
<path d="M28.4089 29.8227C29.2223 14.5302 42.27 2.9408 57.5516 3.93709C72.8333 4.93338 84.5621 18.138 83.7487 33.4305L82.4064 58.665C82.2715 61.2019 80.107 63.1244 77.572 62.9592L31.4124 59.9498C28.8774 59.7845 26.9317 57.594 27.0666 55.0572L28.4089 29.8227Z" fill="url(#paint1_radial_664_7628)" stroke="#BAECFF" stroke-width="4"/>
<circle cx="38.9129" cy="38.9827" r="10.0136" transform="rotate(20.3165 38.9129 38.9827)" fill="url(#paint2_radial_664_7628)" fill-opacity="0.4"/>
<circle cx="72.9207" cy="38.9182" r="10.0136" transform="rotate(20.3165 72.9207 38.9182)" fill="url(#paint3_radial_664_7628)" fill-opacity="0.4"/>
<path d="M82.4439 84.3018C81.633 100.7 67.6907 113.178 51.3029 112.171C34.9152 111.164 22.2876 97.0536 23.0986 80.655L23.412 74.3169C23.5301 71.929 25.5603 70.1121 27.9466 70.2587L78.6504 73.3745C81.0367 73.5211 82.8754 75.5758 82.7573 77.9637L82.4439 84.3018Z" fill="url(#paint4_linear_664_7628)"/>
<path d="M41.6935 30.5159C41.5181 26.6778 44.4874 23.4243 48.3255 23.2489C52.1636 23.0736 55.4171 26.0428 55.5925 29.8809L55.7134 32.5283C55.8888 36.3664 52.9195 39.62 49.0814 39.7953C45.2433 39.9707 41.9898 37.0014 41.8144 33.1633L41.6935 30.5159Z" fill="white"/>
<path fill-rule="evenodd" clip-rule="evenodd" d="M50.1064 26.4674C47.6816 26.5782 45.8056 28.6337 45.9164 31.0586L45.9547 31.8966C46.0655 34.3215 48.121 36.1974 50.5459 36.0866C52.9708 35.9758 54.8467 33.9203 54.7359 31.4954L54.6976 30.6574C54.6831 30.3388 54.6349 30.0297 54.5568 29.7333C54.4065 29.1629 53.5485 29.1438 52.9865 29.323C52.8044 29.3811 52.6075 29.4172 52.4011 29.4266C51.4152 29.4716 50.5878 28.892 50.5531 28.132C50.5486 28.0341 50.5575 27.9379 50.5785 27.8446C50.6956 27.3249 50.6386 26.4431 50.1064 26.4674Z" fill="#212526"/>
<path d="M54.2687 29.9417C54.0933 26.1036 57.0626 22.85 60.9007 22.6747C64.7388 22.4993 67.9923 25.4686 68.1677 29.3067L68.2886 31.9541C68.464 35.7922 65.4947 39.0458 61.6566 39.2211C57.8185 39.3965 54.565 36.4272 54.3896 32.5891L54.2687 29.9417Z" fill="white"/>
<path fill-rule="evenodd" clip-rule="evenodd" d="M61.3691 25.8033C58.9443 25.9141 57.0683 27.9696 57.1791 30.3945L57.2174 31.2325C57.3282 33.6574 59.3837 35.5333 61.8086 35.4225C64.2335 35.3118 66.1094 33.2562 65.9986 30.8313L65.9603 29.9933C65.9458 29.6747 65.8976 29.3656 65.8195 29.0692C65.6692 28.4989 64.8112 28.4798 64.2492 28.659C64.0671 28.717 63.8702 28.7531 63.6638 28.7625C62.6779 28.8076 61.8505 28.228 61.8158 27.468C61.8113 27.37 61.8202 27.2739 61.8412 27.1805C61.9583 26.6608 61.9013 25.779 61.3691 25.8033Z" fill="#212526"/>
<path d="M45.995 41.9772C44.3616 42.1208 43.1523 43.6588 44.2032 44.9174C44.8894 45.7393 45.8524 46.4562 47.037 47.0272C48.2217 47.5982 49.6048 48.0121 51.1075 48.2454C52.6102 48.4786 54.2031 48.5266 55.7951 48.3866C57.3871 48.2466 58.9471 47.9213 60.386 47.4293C61.8249 46.9373 63.1146 46.2883 64.1814 45.5192C65.2482 44.7502 66.0712 43.8762 66.6034 42.9472C67.4185 41.5245 65.9592 40.2212 64.3259 40.3649L55.1604 41.171L45.995 41.9772Z" fill="url(#paint5_linear_664_7628)"/>
<path d="M46.683 41.8379C46.7354 42.434 47.0076 43.0049 47.4841 43.518C47.9606 44.0311 48.632 44.4763 49.46 44.8283C50.288 45.1802 51.2564 45.432 52.3098 45.5692C53.3633 45.7064 54.4812 45.7264 55.5997 45.6281C56.7182 45.5297 57.8155 45.3149 58.8288 44.9958C59.8421 44.6768 60.7517 44.2599 61.5055 43.7688C62.2594 43.2777 62.8428 42.7221 63.2224 42.1337C63.602 41.5453 63.7704 40.9357 63.7179 40.3396L55.2005 41.0887L46.683 41.8379Z" fill="#F5F9FA"/>
<path d="M17.9758 81.7143C15.2357 82.1311 12.506 80.9019 11.0019 78.574L5.93895 70.7382C3.14021 66.4066 5.45446 60.6085 10.4666 59.3945C13.8197 58.5824 17.2937 60.1659 18.8803 63.2295L23.1703 71.5137C25.3877 75.7956 22.7429 80.9893 17.9758 81.7143Z" fill="url(#paint6_linear_664_7628)"/>
<path fill-rule="evenodd" clip-rule="evenodd" d="M93.7457 45.3955C91.3962 45.0258 89.1918 46.6308 88.8221 48.9803L88.4604 51.2786C84.0668 50.7633 80.014 53.8088 79.3202 58.2175L78.8053 61.49C78.0943 66.0083 81.1808 70.2475 85.6991 70.9585C90.2174 71.6695 94.4566 68.583 95.1676 64.0647L95.6826 60.7922C95.6849 60.7773 95.6873 60.7623 95.6895 60.7473L97.3305 50.3192C97.7002 47.9696 96.0952 45.7652 93.7457 45.3955Z" fill="url(#paint7_linear_664_7628)"/>
<defs>
<linearGradient id="paint0_linear_664_7628" x1="8.16594" y1="69.0505" x2="21.7838" y2="59.0407" gradientUnits="userSpaceOnUse">
<stop stop-color="#606C6E"/>
<stop offset="1" stop-color="#495153"/>
</linearGradient>
<radialGradient id="paint1_radial_664_7628" cx="0" cy="0" r="1" gradientUnits="userSpaceOnUse" gradientTransform="translate(58.0491 39.7355) rotate(-52.6589) scale(64.4084 152.697)">
<stop stop-color="#D3F5FF"/>
<stop offset="1" stop-color="white"/>
</radialGradient>
<radialGradient id="paint2_radial_664_7628" cx="0" cy="0" r="1" gradientUnits="userSpaceOnUse" gradientTransform="translate(38.9129 38.9827) rotate(95.9278) scale(54.8874)">
<stop stop-color="#29B6F6" stop-opacity="0.5"/>
<stop offset="1" stop-color="#9EE9FF" stop-opacity="0"/>
</radialGradient>
<radialGradient id="paint3_radial_664_7628" cx="0" cy="0" r="1" gradientUnits="userSpaceOnUse" gradientTransform="translate(72.9207 38.9182) rotate(95.9278) scale(54.8874)">
<stop stop-color="#29B6F6" stop-opacity="0.5"/>
<stop offset="1" stop-color="#9EE9FF" stop-opacity="0"/>
</radialGradient>
<linearGradient id="paint4_linear_664_7628" x1="35.9913" y1="105.623" x2="61.7137" y2="42.9886" gradientUnits="userSpaceOnUse">
<stop stop-color="#E6FAFF"/>
<stop offset="1" stop-color="white"/>
</linearGradient>
<linearGradient id="paint5_linear_664_7628" x1="55.7951" y1="48.3866" x2="54.5258" y2="33.9555" gradientUnits="userSpaceOnUse">
<stop stop-color="#4C5659"/>
<stop offset="1" stop-color="#859499"/>
</linearGradient>
<linearGradient id="paint6_linear_664_7628" x1="10.0141" y1="61.8106" x2="18.4619" y2="76.4487" gradientUnits="userSpaceOnUse">
<stop stop-color="#606C6E"/>
<stop offset="1" stop-color="#495153"/>
</linearGradient>
<linearGradient id="paint7_linear_664_7628" x1="89.8189" y1="44.7776" x2="83.812" y2="71.9809" gradientUnits="userSpaceOnUse">
<stop stop-color="#495153"/>
<stop offset="1" stop-color="#606C6E"/>
</linearGradient>
</defs>
</svg>
