<svg width="758" height="432" viewBox="0 0 758 432" fill="none" xmlns="http://www.w3.org/2000/svg">
<g clip-path="url(#clip0_198_1554)">
<mask id="mask0_198_1554" style="mask-type:luminance" maskUnits="userSpaceOnUse" x="0" y="0" width="758" height="432">
<path d="M0 0H758V432H0V0Z" fill="white"/>
</mask>
<g mask="url(#mask0_198_1554)">
<path fill-rule="evenodd" clip-rule="evenodd" d="M487.924 66.877C542.336 106.498 535.418 311.775 531.442 380.333C543.986 381.088 556.471 384.067 568.896 385C572.395 49.658 486.273 1 486.273 1C443.869 77.621 442 187.27 442 187.27L445.539 228.54C459.674 90.491 487.924 66.877 487.924 66.877Z" fill="#009D85"/>
<path fill-rule="evenodd" clip-rule="evenodd" d="M457.4 291.678C457.4 291.678 468.715 331.15 462.499 374.809C472.739 375.147 482.978 375.544 493.198 376C495.229 342.66 495.469 276.318 467.779 255.501C467.779 255.501 445.388 234.941 407 230L415.805 262.903C415.805 262.883 454.989 269.472 457.4 291.678Z" fill="#E8421F"/>
<path fill-rule="evenodd" clip-rule="evenodd" d="M352.949 220.04C352.949 220.04 365.727 257.977 369.728 303.976C371.54 324.856 371.977 353.538 372.017 373.841C374.645 373.841 377.292 373.821 379.919 373.821C389.613 373.821 399.307 373.881 409 374C407.806 335.167 402.471 253.917 379.302 205.211C356.751 157.858 340.15 154.892 330.556 150.772C315.369 145.816 288 145 288 145L292.2 175.513C292.2 175.494 340.946 163.949 352.949 220.04Z" fill="#152A8C"/>
<path fill-rule="evenodd" clip-rule="evenodd" d="M233.269 380.639C232.044 347.658 232.084 283.588 245.319 217.007C265.072 136.217 282.494 108.177 306 74C306 74 252.331 96.22 221.536 186.915C221.536 186.915 198.306 250.008 186 386C201.684 384.784 217.447 381.556 233.269 380.639ZM1 431C1 431 170.297 391 379 391C379 391 604.862 391.469 757 431H1Z" fill="#152A8C"/>
</g>
</g>
<defs>
<clipPath id="clip0_198_1554">
<rect width="758" height="432" fill="white"/>
</clipPath>
</defs>
</svg>
